<svg xmlns="http://www.w3.org/2000/svg" width="900" height="520" viewBox="0 0 900 520">
  <title>Measured TTFT–throughput operating points</title>
  <rect width="100%" height="100%" fill="#0f172a"/>
  <text x="36" y="42" fill="#f8fafc" font-family="sans-serif" font-size="24" font-weight="700">Measured TTFT–throughput operating points</text>
  <line x1="90" y1="450" x2="850" y2="450" stroke="#94a3b8"/><line x1="90" y1="90" x2="90" y2="450" stroke="#94a3b8"/><text x="420" y="500" fill="#cbd5e1" font-family="sans-serif">P95 TTFT (s) — lower is better</text><text x="12" y="270" transform="rotate(-90 12 270)" fill="#cbd5e1" font-family="sans-serif">Output tok/s — higher is better</text><circle cx="232.6" cy="236.5" r="6" fill="#f59e0b"/><text x="241.6" y="240.5" fill="#e2e8f0" font-family="sans-serif" font-size="12">tensorrt_llm C1</text><circle cx="267.1" cy="266.9" r="6" fill="#34d399"/><text x="276.1" y="270.9" fill="#e2e8f0" font-family="sans-serif" font-size="12">sglang C1</text><circle cx="340.2" cy="281.8" r="6" fill="#60a5fa"/><text x="349.2" y="285.8" fill="#e2e8f0" font-family="sans-serif" font-size="12">vllm C1</text><circle cx="330.9" cy="194.1" r="6" fill="#f59e0b"/><text x="339.9" y="198.1" fill="#e2e8f0" font-family="sans-serif" font-size="12">tensorrt_llm C2</text><circle cx="378.9" cy="218.0" r="6" fill="#34d399"/><text x="387.9" y="222.0" fill="#e2e8f0" font-family="sans-serif" font-size="12">sglang C2</text><circle cx="490.7" cy="262.1" r="6" fill="#60a5fa"/><text x="499.7" y="266.1" fill="#e2e8f0" font-family="sans-serif" font-size="12">vllm C2</text><circle cx="470.9" cy="150.0" r="6" fill="#f59e0b"/><text x="479.9" y="154.0" fill="#e2e8f0" font-family="sans-serif" font-size="12">tensorrt_llm C4</text><circle cx="603.6" cy="199.5" r="6" fill="#34d399"/><text x="612.6" y="203.5" fill="#e2e8f0" font-family="sans-serif" font-size="12">sglang C4</text><circle cx="750.9" cy="244.2" r="6" fill="#60a5fa"/><text x="759.9" y="248.2" fill="#e2e8f0" font-family="sans-serif" font-size="12">vllm C4</text>
</svg>
