<svg xmlns="http://www.w3.org/2000/svg" width="900" height="520" viewBox="0 0 900 520">
  <title>Scaling efficiency</title>
  <rect width="100%" height="100%" fill="#0f172a"/>
  <text x="36" y="42" fill="#f8fafc" font-family="sans-serif" font-size="24" font-weight="700">Scaling efficiency</text>
  <line x1="90" y1="450" x2="850" y2="450" stroke="#94a3b8"/><rect x="100.0" y="208.0" width="73.8" height="242.0" fill="#f59e0b"/><text x="136.9" y="470" text-anchor="middle" fill="#cbd5e1" font-family="sans-serif" font-size="10">tensorrt_llm C1</text><rect x="177.8" y="242.5" width="73.8" height="207.5" fill="#34d399"/><text x="214.7" y="470" text-anchor="middle" fill="#cbd5e1" font-family="sans-serif" font-size="10">sglang C1</text><rect x="255.6" y="259.4" width="73.8" height="190.6" fill="#60a5fa"/><text x="292.4" y="470" text-anchor="middle" fill="#cbd5e1" font-family="sans-serif" font-size="10">vllm C1</text><rect x="333.3" y="160.0" width="73.8" height="290.0" fill="#f59e0b"/><text x="370.2" y="470" text-anchor="middle" fill="#cbd5e1" font-family="sans-serif" font-size="10">tensorrt_llm C2</text><rect x="411.1" y="187.1" width="73.8" height="262.9" fill="#34d399"/><text x="448.0" y="470" text-anchor="middle" fill="#cbd5e1" font-family="sans-serif" font-size="10">sglang C2</text><rect x="488.9" y="237.1" width="73.8" height="212.9" fill="#60a5fa"/><text x="525.8" y="470" text-anchor="middle" fill="#cbd5e1" font-family="sans-serif" font-size="10">vllm C2</text><rect x="566.7" y="110.0" width="73.8" height="340.0" fill="#f59e0b"/><text x="603.6" y="470" text-anchor="middle" fill="#cbd5e1" font-family="sans-serif" font-size="10">tensorrt_llm C4</text><rect x="644.4" y="166.1" width="73.8" height="283.9" fill="#34d399"/><text x="681.3" y="470" text-anchor="middle" fill="#cbd5e1" font-family="sans-serif" font-size="10">sglang C4</text><rect x="722.2" y="216.8" width="73.8" height="233.2" fill="#60a5fa"/><text x="759.1" y="470" text-anchor="middle" fill="#cbd5e1" font-family="sans-serif" font-size="10">vllm C4</text><text x="36" y="80" fill="#cbd5e1" font-family="sans-serif">Request throughput by engine and concurrency</text>
</svg>
